:version 1.10
:name ASF
:units
  mass 1
  length 1
  angle deg
:documentation
  ASF file generated by Kaydara
:root
  axis xyz
  order  tx ty tz rx ry rz
  position 0 0 0
  orientation 0 0 0
:bonedata
  begin
    id 1
    name RightUpLegDummy
    direction -0.718183 -0.695806 0.00816078
    length 4.904
    axis 0 0 0 xyz
  end
  begin
    id 2
    name RightUpLeg
    direction -0.00334265 -0.999142 0.0412837
    length 17.4976
    axis -0.59612 0.00940841 -0.192072 xyz
    dof rx ry rz
  end
  begin
    id 3
    name RightLeg
    direction 0.000365068 -0.988824 -0.149089
    length 16.5821
    axis 6.58657 0.0604092 -0.318554 xyz
    dof rx ry rz
  end
  begin
    id 4
    name RightFoot
    direction 0.00079069 -0.460991 0.887405
    length 3.77069
    axis 0.000105557 -0.120464 -0.188919 xyz
    dof rx ry rz
  end
  begin
    id 5
    name RightToes
    direction 0.00124768 -0.014065 0.9999
    length 3.85082
    axis 0.00053932 0.542178 -0.142707 xyz
    dof rx ry rz
  end
  begin
    id 6
    name SpineDummy
    direction 8.3039e-015 1 4.58682e-016
    length 4.6813
    axis 0 0 0 xyz
  end
  begin
    id 7
    name Spine
    direction 4.12799e-006 0.999988 0.00494944
    length 10.1015
    axis -0.00149944 0.000129667 -0.000235877 xyz
    dof rx ry rz
  end
  begin
    id 8
    name Spine1
    direction 0 0 0
    length 0
    axis -0.00160567 0.000129431 -0.000308381 xyz
    dof rx ry rz
  end
  begin
    id 9
    name HEadDummy
    direction 5.38513e-006 0.999999 0.00127044
    length 3.43865
    axis -0.00160567 0.000129431 -0.000308381 xyz
  end
  begin
    id 10
    name HEad
    direction -0.0226495 0.980942 0.192974
    length 5.12695
    axis -0.00160642 -0.114462 -0.000307946 xyz
    dof rx ry rz
  end
  begin
    id 11
    name LeftShoulder1Dummy
    direction 0.99889 -0.0402564 -0.0244456
    length 3.5433
    axis -0.00160567 0.000129431 -0.000308381 xyz
  end
  begin
    id 12
    name LeftShoulder1
    direction 0.999464 -0.00142945 0.0326977
    length 4.05031
    axis 0.393425 -0.0796525 -0.0507861 xyz
    dof rx ry rz
  end
  begin
    id 13
    name LeftArm
    direction 0.998564 -0.000899612 -0.053557
    length 10.3537
    axis -22.9476 0.126974 0.960871 xyz
    dof rx ry rz
  end
  begin
    id 14
    name LeftForeArm
    direction 0.998903 0.00865904 0.0460121
    length 8.70632
    axis -9.91856 -0.0656997 -0.178106 xyz
    dof rx ry rz
  end
  begin
    id 15
    name LeftHand
    direction 0.992938 -0.0411687 0.11126
    length 5.32135
    axis -0.00981066 -0.00340928 0.18486 xyz
    dof rx ry rz
  end
  begin
    id 16
    name RightShoulderDummy
    direction -0.998891 -0.0402456 -0.0244411
    length 3.5433
    axis -0.00160567 0.000129431 -0.000308381 xyz
  end
  begin
    id 17
    name RightShoulder
    direction -0.999353 -0.00388479 0.0357579
    length 4.05031
    axis 1.48787 0.256014 0.157284 xyz
    dof rx ry rz
  end
  begin
    id 18
    name RightArm
    direction -0.998583 -0.000660455 -0.0532032
    length 10.3947
    axis -22.4211 -0.109147 -0.943573 xyz
    dof rx ry rz
  end
  begin
    id 19
    name RightForeArm
    direction -0.998898 0.00868588 0.0461311
    length 8.68355
    axis -9.92343 0.0658342 0.178556 xyz
    dof rx ry rz
  end
  begin
    id 20
    name RightHand
    direction -0.992843 -0.0414545 0.112004
    length 5.28593
    axis -0.00982288 0.00332907 -0.185539 xyz
    dof rx ry rz
  end
  begin
    id 21
    name LeftUpLegDummy
    direction 0.718183 -0.695806 0.00816078
    length 4.904
    axis 0 0 0 xyz
  end
  begin
    id 22
    name LeftUpLeg
    direction 0.00445374 -0.999139 0.0412407
    length 17.4976
    axis -0.593655 -0.0138231 0.255969 xyz
    dof rx ry rz
  end
  begin
    id 23
    name LeftLeg
    direction -0.00154847 -0.988829 -0.149046
    length 16.5821
    axis 6.5841 -0.0555156 0.250722 xyz
    dof rx ry rz
  end
  begin
    id 24
    name LeftFoot
    direction -0.00417678 -0.460985 0.887398
    length 3.77069
    axis 5.53694e-005 4.88088e-005 -0.000136194 xyz
    dof rx ry rz
  end
  begin
    id 25
    name LeftToes
    direction 0.00818061 -0.00485256 0.999955
    length 3.85048
    axis 6.41179e-005 4.88477e-005 -0.000136145 xyz
    dof rx ry rz
  end
:hierarchy
  begin
    root RightUpLegDummy SpineDummy LeftUpLegDummy
    RightUpLegDummy RightUpLeg
    RightUpLeg RightLeg
    RightLeg RightFoot
    RightFoot RightToes
    SpineDummy Spine
    Spine Spine1
    Spine1 HEadDummy LeftShoulder1Dummy RightShoulderDummy
    HEadDummy HEad
    LeftShoulder1Dummy LeftShoulder1
    LeftShoulder1 LeftArm
    LeftArm LeftForeArm
    LeftForeArm LeftHand
    RightShoulderDummy RightShoulder
    RightShoulder RightArm
    RightArm RightForeArm
    RightForeArm RightHand
    LeftUpLegDummy LeftUpLeg
    LeftUpLeg LeftLeg
    LeftLeg LeftFoot
    LeftFoot LeftToes
  end

:SAMPLES-PER-SECOND 30
:FULLY-SPECIFIED
:DEGREES
77
root  0.951649 40.3216 0.181306 -172.143 -86.1899 171.088
RightUpLeg  3.61719 -6.00122 -9.2553
RightLeg  -3.57831 -10.4831 -0.285988
RightFoot  -0.681599 -0.785758 8.35541
RightToes  6.35927e-011 1.30204e-014 -6.03759e-014
Spine  -0.978617 -0.435474 -1.52212
Spine1  5.41201 -0.487808 0.254493
HEad  0.643597 3.62043 -1.24231
LeftShoulder1  -0.00958961 3.64463 0.990264
LeftArm  -22.5343 -0.272207 -3.52771
LeftForeArm  14.0382 -1.38109 -5.90319
LeftHand  -0.254832 1.92731 8.23164
RightShoulder  -0.00377722 -3.54733 0.203345
RightArm  -29.6056 15.3276 5.80109
RightForeArm  13.8384 2.33224 6.81765
RightHand  -0.280935 -0.873485 -7.17811
LeftUpLeg  6.2937 11.4171 14.1587
LeftLeg  -2.53686 21.5566 -1.96336
LeftFoot  -0.721667 0.687094 -7.36545
LeftToes  1.82556e-010 9.56953e-011 7.56925e-011
78
root  0.973003 40.3156 0.18126 -170.821 -86.4146 169.756
RightUpLeg  3.65651 -6.0435 -9.31859
RightLeg  -3.58249 -10.6354 -0.265556
RightFoot  -0.709127 -0.780592 8.26929
RightToes  6.35927e-011 1.30204e-014 -6.03759e-014
Spine  -0.823108 -0.543341 -1.67603
Spine1  5.72597 -0.616693 0.334604
HEad  0.19316 3.84161 -1.37527
LeftShoulder1  0.0016469 3.47674 -0.226533
LeftArm  -23.2066 2.01697 -5.63571
LeftForeArm  11.3636 -5.18397 -6.01679
LeftHand  -0.421361 0.514234 10.0465
RightShoulder  0.00910712 -3.40784 1.79661
RightArm  -30.0321 12.6886 7.99956
RightForeArm  12.4167 7.13534 6.88869
RightHand  -0.439278 0.020699 -9.42161
LeftUpLeg  6.16626 11.3447 14.0585
LeftLeg  -2.4968 21.4319 -1.8966
LeftFoot  -0.712391 0.686692 -7.33333
LeftToes  1.82556e-010 9.56953e-011 7.56925e-011
79
root  0.975521 40.3167 0.17742 -170.228 -86.5829 169.228
RightUpLeg  3.70315 -6.0269 -9.31435
RightLeg  -3.71565 -10.8194 -0.223332
RightFoot  -0.694935 -0.790078 8.39864
RightToes  6.35927e-011 1.30204e-014 -6.03759e-014
Spine  -0.877031 -0.587622 -1.67686
Spine1  6.03407 -0.66412 0.325363
HEad  0.0476233 3.86262 -1.45713
LeftShoulder1  0.0371133 3.1403 -1.82747
LeftArm  -23.1477 4.80319 -8.31442
LeftForeArm  8.28697 -10.1464 -6.16137
LeftHand  -0.54067 -0.758113 10.3318
RightShoulder  0.0188 -3.33058 3.59485
RightArm  -28.6098 9.79929 11.066
RightForeArm  9.40118 12.7684 6.3544
RightHand  -0.518946 0.753767 -9.92192
LeftUpLeg  6.03442 11.3515 14.0547
LeftLeg  -2.48571 21.2768 -1.90263
LeftFoot  -0.693771 0.690562 -7.35818
LeftToes  1.82556e-010 9.56953e-011 7.56925e-011
80
root  0.972185 40.3236 0.178763 -170.165 -86.6641 169.355
RightUpLeg  3.51589 -5.99486 -9.2706
RightLeg  -3.72333 -10.9471 -0.196123
RightFoot  -0.629574 -0.771972 8.17655
RightToes  6.35927e-011 1.30204e-014 -6.03759e-014
Spine  -1.04023 -0.633329 -1.62243
Spine1  6.13603 -0.700285 0.28606
HEad  0.105581 3.82571 -1.565
LeftShoulder1  0.0691005 2.91648 -3.77187
LeftArm  -21.4095 7.33842 -11.6419
LeftForeArm  4.34044 -14.7647 -5.83535
LeftHand  -0.546374 -1.83869 8.97502
RightShoulder  0.0384271 -3.20893 5.92368
RightArm  -25.0074 7.30368 14.4733
RightForeArm  5.21255 17.5476 5.56366
RightHand  -0.547482 0.88806 -10.2362
LeftUpLeg  5.87222 11.3228 14.0373
LeftLeg  -2.62209 21.2262 -1.95246
LeftFoot  -0.599869 0.694157 -7.33991
LeftToes  1.82556e-010 9.56953e-011 7.56925e-011
81
root  0.955656 40.3267 0.179684 -170.077 -86.7643 169.39
RightUpLeg  3.64189 -6.04407 -9.29982
RightLeg  -4.1382 -11.0471 -0.00352024
RightFoot  -0.47903 -0.793416 8.29558
RightToes  6.35927e-011 1.30204e-014 -6.03759e-014
Spine  -1.32953 -0.706969 -1.64463
Spine1  6.57871 -0.772539 0.274415
HEad  -0.0503941 3.89527 -1.62055
LeftShoulder1  0.105639 2.69666 -5.2703
LeftArm  -19.2284 9.7825 -16.0427
LeftForeArm  0.436862 -18.4505 -5.3752
LeftHand  -0.487159 -2.38004 7.48623
RightShoulder  0.0794263 -2.98124 8.11715
RightArm  -21.8476 4.92011 18.3576
RightForeArm  3.01579 21.0009 4.97785
RightHand  -0.506627 0.688534 -9.77332
LeftUpLeg  5.8355 11.3653 14.0707
LeftLeg  -2.82344 21.1218 -2.07793
LeftFoot  -0.527777 0.694635 -7.29525
LeftToes  1.82556e-010 9.56953e-011 7.56925e-011
82
root  0.939383 40.3276 0.179286 -169.767 -86.7934 169.135
RightUpLeg  3.79199 -6.13349 -9.36038
RightLeg  -4.46522 -10.9851 0.150796
RightFoot  -0.411271 -0.790236 8.21258
RightToes  6.35927e-011 1.30204e-014 -6.03759e-014
Spine  -1.58216 -0.709692 -1.70879
Spine1  7.14546 -0.800068 0.379177
HEad  -0.364405 3.86654 -1.836
LeftShoulder1  0.158986 2.44416 -7.4192
LeftArm  -16.0523 11.2343 -19.8762
LeftForeArm  -2.07832 -20.5193 -5.23049
LeftHand  -0.430669 -2.55232 6.51317
RightShoulder  0.115567 -2.81107 9.8206
RightArm  -18.4818 3.01643 22.5314
RightForeArm  2.52357 22.4571 4.84596
RightHand  -0.441078 0.3782 -8.96184
LeftUpLeg  5.86356 11.3708 14.079
LeftLeg  -2.95106 21.0616 -2.14543
LeftFoot  -0.499822 0.698574 -7.3205
LeftToes  1.82556e-010 9.56953e-011 7.56925e-011
83
root  0.925579 40.3276 0.178187 -170.608 -86.8967 170.002
RightUpLeg  3.84124 -6.14879 -9.32795
RightLeg  -4.53547 -11.0579 0.235312
RightFoot  -0.320056 -0.784493 8.14303
RightToes  6.35927e-011 1.30204e-014 -6.03759e-014
Spine  -1.72766 -0.735722 -1.50859
Spine1  7.57441 -0.776496 0.156178
HEad  -0.269296 3.65075 -1.71686
LeftShoulder1  0.28719 1.76839 -9.1077
LeftArm  -13.898 12.4405 -24.1389
LeftForeArm  -0.863885 -20.912 -5.1683
LeftHand  -0.357851 -2.45098 5.50448
RightShoulder  0.170558 -2.59088 11.9348
RightArm  -13.6228 1.83982 26.2129
RightForeArm  2.93154 22.1686 4.87315
RightHand  -0.342557 -0.197864 -7.66282
LeftUpLeg  5.78996 11.3772 14.1314
LeftLeg  -2.86965 20.9529 -2.071
LeftFoot  -0.545145 0.717297 -7.5871
LeftToes  1.82556e-010 9.56953e-011 7.56925e-011
84
root  0.904101 40.3243 0.176066 -170.913 -86.7502 170.306
RightUpLeg  3.91566 -6.08259 -9.30043
RightLeg  -4.70056 -10.9802 0.190388
RightFoot  -0.327988 -0.788725 8.2094
RightToes  6.35927e-011 1.30204e-014 -6.03759e-014
Spine  -1.74405 -0.665064 -1.4955
Spine1  7.75679 -0.690429 0.105022
HEad  -0.0659579 3.65084 -1.78797
LeftShoulder1  0.42965 1.13865 -10.9247
LeftArm  -11.3114 13.0796 -28.0461
LeftForeArm  1.36584 -19.7534 -5.49801
LeftHand  -0.366228 -2.8895 5.37293
RightShoulder  0.25512 -2.22977 13.3385
RightArm  -9.25652 1.00143 30.4388
RightForeArm  5.69291 20.1019 5.54582
RightHand  -0.273179 -0.182828 -6.13355
LeftUpLeg  5.85974 11.3812 14.1304
LeftLeg  -2.85034 21.106 -2.07701
LeftFoot  -0.567542 0.712636 -7.49577
LeftToes  1.82556e-010 9.56953e-011 7.56925e-011
85
root  0.882708 40.3228 0.174779 -172.526 -86.5709 171.954
RightUpLeg  3.77865 -6.12165 -9.26404
RightLeg  -4.52438 -10.7549 0.224988
RightFoot  -0.331454 -0.785894 8.16146
RightToes  6.35927e-011 1.30204e-014 -6.03759e-014
Spine  -1.80131 -0.603866 -1.29043
Spine1  7.84095 -0.571351 -0.111096
HEad  0.244715 3.77381 -1.81045
LeftShoulder1  0.614914 0.375953 -12.5654
LeftArm  -10.1076 13.6343 -31.916
LeftForeArm  5.84444 -18.1059 -6.05266
LeftHand  -0.283343 -1.79419 4.734
RightShoulder  0.324958 -2.00252 15.1052
RightArm  -6.97639 0.809962 34.1065
RightForeArm  11.0297 16.9997 7.26478
RightHand  -0.188289 -0.657914 -4.5623
LeftUpLeg  5.97751 11.4387 14.1903
LeftLeg  -2.99633 21.3844 -2.16167
LeftFoot  -0.601531 0.701542 -7.31107
LeftToes  1.82556e-010 9.56953e-011 7.56925e-011
